# File created by Blade
# Date/Time:  Wed Jan 21 16:20:01 2015
# Frame Rate: 120.000 fps
#------------------------------------------------------
:FULLY-SPECIFIED
:DEGREES
314
root 19.267364 36.111128 -22.080539 -192.161632 53.901105 -179.727526
Spine 9.006691 44.908601 9.796749
Head 49.287906 52.831246 30.625914
LeftShoulder -22.119744 -23.811025 14.225506
LeftArm -41.894899 -6.851478 -20.235350
LeftForeArm -18.186253 -0.000000 1.527467
LeftHand -7.786171 -0.000000 4.880706
LeftHandThumb1 -26.253704 0.000000 33.147579
RightShoulder -11.457462 -14.226326 9.819069
RightArm 15.534288 -6.061046 47.211197
RightForeArm -59.663406 -0.000000 81.451064
RightHand 2.112694 -0.000000 32.347454
RightHandThumb1 -24.326973 -0.000000 -32.862282
LeftUpLeg -73.878175 -36.097503 -18.930190
LeftLeg 92.103849 -0.000000 -0.000000
LeftFoot 28.462806 15.990001 -2.655958
LeftToeBase -174.286597 -0.000000 0.000000
RightUpLeg 17.548585 16.169129 9.167472
RightLeg 2.450967 -0.000000 -0.000000
RightFoot -11.902369 4.038021 13.787135
RightToeBase 24.649662 -0.000000 -0.000000
315
root 19.270688 36.111719 -22.083639 -191.996586 54.107203 -179.662910
Spine 8.763796 45.105944 9.678599
Head 49.564066 52.921759 30.841783
LeftShoulder -22.145726 -23.782128 14.245649
LeftArm -41.852920 -6.870578 -20.130283
LeftForeArm -17.840750 0.000000 1.541312
LeftHand -7.975099 -0.000000 5.254276
LeftHandThumb1 -26.253704 0.000000 33.147579
RightShoulder -11.481701 -14.253211 9.826014
RightArm 15.556363 -6.138795 47.160378
RightForeArm -59.487420 -0.000000 81.163471
RightHand 2.103735 -0.000000 32.334465
RightHandThumb1 -24.326973 -0.000000 -32.862282
LeftUpLeg -73.916925 -36.000483 -18.848557
LeftLeg 92.031058 -0.000000 -0.000000
LeftFoot 28.493725 15.878122 -2.559587
LeftToeBase -174.081691 -0.000000 0.000000
RightUpLeg 17.469714 16.133443 9.101774
RightLeg 2.353962 -0.000000 -0.000000
RightFoot -11.821919 4.369573 13.793221
RightToeBase 25.134202 -0.000000 -0.000000
316
root 19.277405 36.112594 -22.091279 -191.870241 54.319569 -179.609565
Spine 8.547814 45.312244 9.586082
Head 49.803998 52.982397 31.018930
LeftShoulder -22.163088 -23.770053 14.289466
LeftArm -41.845986 -6.817875 -20.056843
LeftForeArm -17.689796 -0.000000 1.560404
LeftHand -7.884716 -0.000000 5.205401
LeftHandThumb1 -26.253704 0.000000 33.147579
RightShoulder -11.457436 -14.155227 9.799625
RightArm 15.392351 -6.238565 47.169093
RightForeArm -59.284300 0.000000 80.949795
RightHand 2.023079 -0.000000 32.416436
RightHandThumb1 -24.326973 -0.000000 -32.862282
LeftUpLeg -73.957518 -35.975887 -18.749252
LeftLeg 91.975354 -0.000000 -0.000000
LeftFoot 28.478587 15.847549 -2.573950
LeftToeBase -174.149220 -0.000000 0.000000
RightUpLeg 17.437205 16.086219 9.044576
RightLeg 2.244394 -0.000000 -0.000000
RightFoot -11.692630 4.689357 13.845368
RightToeBase 25.311560 -0.000000 -0.000000
317
root 19.283120 36.113365 -22.100341 -191.776012 54.524009 -179.547788
Spine 8.432380 45.501863 9.585448
Head 49.936444 53.050119 31.030759
LeftShoulder -22.184470 -23.742993 14.282414
LeftArm -41.817527 -6.772309 -19.973977
LeftForeArm -17.644944 -0.000000 1.574763
LeftHand -7.858335 -0.000000 5.256633
LeftHandThumb1 -26.253704 0.000000 33.147579
RightShoulder -11.471216 -14.134146 9.748664
RightArm 15.350298 -6.270525 47.220997
RightForeArm -59.129160 -0.000000 80.672181
RightHand 2.090045 -0.000000 32.403484
RightHandThumb1 -24.326973 -0.000000 -32.862282
LeftUpLeg -73.973334 -35.942896 -18.653865
LeftLeg 91.932651 -0.000000 -0.000000
LeftFoot 28.620980 15.804059 -2.538959
LeftToeBase -173.983515 -0.000000 0.000000
RightUpLeg 17.441529 16.036899 9.010523
RightLeg 2.143026 -0.000000 -0.000000
RightFoot -11.582023 4.961513 13.932908
RightToeBase 25.729502 -0.000000 -0.000000
318
root 19.287530 36.113310 -22.110985 -191.690308 54.731242 -179.485405
Spine 8.327851 45.695216 9.606410
Head 50.062884 53.090101 31.044588
LeftShoulder -22.204709 -23.710876 14.306122
LeftArm -41.817492 -6.747045 -19.896182
LeftForeArm -17.586126 -0.000000 1.580421
LeftHand -7.846024 -0.000000 5.389024
LeftHandThumb1 -26.253704 0.000000 33.147579
RightShoulder -11.461302 -14.186147 9.699006
RightArm 15.307845 -6.249606 47.261141
RightForeArm -58.937728 -0.000000 80.458562
RightHand 2.062821 0.000000 32.361780
RightHandThumb1 -24.326973 -0.000000 -32.862282
LeftUpLeg -73.996603 -35.884206 -18.566830
LeftLeg 91.889580 -0.000000 -0.000000
LeftFoot 28.769663 15.875410 -2.623468
LeftToeBase -174.087312 -0.000000 0.000000
RightUpLeg 17.448893 15.965208 8.971460
RightLeg 2.050926 -0.000000 -0.000000
RightFoot -11.491108 5.251991 14.011123
RightToeBase 25.926803 -0.000000 -0.000000
319
root 19.292775 36.112698 -22.121872 -191.632024 54.928864 -179.448750
Spine 8.244296 45.884476 9.611861
Head 50.213997 53.197386 31.093367
LeftShoulder -22.235824 -23.693348 14.329352
LeftArm -41.795885 -6.663084 -19.842594
LeftForeArm -17.641994 0.000000 1.569268
LeftHand -7.922288 -0.000000 5.590270
LeftHandThumb1 -26.253704 0.000000 33.147579
RightShoulder -11.485657 -14.243144 9.673382
RightArm 15.281428 -6.209683 47.298501
RightForeArm -58.781560 0.000000 80.290040
RightHand 2.060684 -0.000000 32.338219
RightHandThumb1 -24.326973 -0.000000 -32.862282
LeftUpLeg -74.030816 -35.847861 -18.471106
LeftLeg 91.878599 -0.000000 -0.000000
LeftFoot 28.851466 15.788085 -2.572692
LeftToeBase -174.099545 -0.000000 0.000000
RightUpLeg 17.457194 15.936006 8.937760
RightLeg 1.983973 -0.000000 -0.000000
RightFoot -11.443773 5.481295 14.078740
RightToeBase 26.332680 -0.000000 -0.000000
